<?xml version="1.0" encoding="UTF-8" ?>
<!DOCTYPE svg PUBLIC "-//W3C//DTD SVG 1.1//EN" "http://www.w3.org/Graphics/SVG/1.1/DTD/svg11.dtd">
<svg width="1021pt" height="171pt" viewBox="0 0 1021 171" version="1.1" xmlns="http://www.w3.org/2000/svg">
<path fill="#ffffff" d=" M 0.00 0.00 L 1021.00 0.00 L 1021.00 171.00 L 0.00 171.00 L 0.00 0.00 Z" />
<path fill="#00b8f1" d=" M 72.99 5.93 C 76.58 3.52 81.09 3.30 84.88 1.28 C 102.58 1.10 120.25 6.91 134.57 17.31 C 146.58 26.13 156.39 38.02 162.38 51.69 C 170.48 69.88 171.76 90.98 166.05 110.05 C 159.93 130.79 145.43 148.90 126.58 159.49 C 116.55 165.23 105.34 168.72 93.89 170.08 C 92.28 168.60 91.05 166.80 90.16 164.82 C 93.14 161.78 97.73 161.60 101.60 162.67 C 104.22 163.50 106.85 165.95 109.71 164.60 C 111.33 162.61 108.76 160.76 107.57 159.37 C 103.57 154.87 98.79 150.95 95.80 145.64 C 89.87 145.56 83.93 146.07 78.11 147.20 C 75.16 151.45 74.53 157.93 69.08 160.12 C 64.13 161.92 58.48 163.75 53.30 161.78 C 48.52 160.43 45.41 155.89 40.43 154.94 C 40.26 155.51 39.92 156.65 39.75 157.22 C 15.27 141.98 -1.13 113.09 0.98 84.02 C 0.01 74.65 2.59 65.37 5.58 56.58 C 15.00 31.00 37.44 10.11 64.17 4.06 C 60.71 6.54 57.05 8.98 52.76 9.68 C 48.68 10.27 44.90 12.56 42.71 16.08 C 43.63 19.51 45.63 22.68 45.07 26.40 C 50.38 25.28 55.62 23.89 60.91 22.70 C 64.56 21.69 68.64 20.18 70.48 16.60 C 71.94 13.20 69.58 8.52 72.99 5.93 Z" />
<path fill="#ffffff" d=" M 86.41 2.08 C 94.63 5.69 102.84 10.54 107.66 18.38 C 109.29 20.78 109.89 23.66 110.34 26.48 C 105.91 26.53 104.42 20.98 100.07 20.42 C 99.20 21.02 98.33 21.62 97.47 22.22 C 96.98 24.26 97.11 26.87 95.14 28.16 C 91.40 30.46 86.42 29.18 82.92 31.99 C 79.49 34.53 81.50 40.28 77.36 42.31 C 71.22 44.70 64.48 44.80 58.00 45.30 C 55.40 45.65 53.15 44.27 51.10 42.89 C 50.74 40.30 50.31 37.72 50.02 35.12 C 55.31 33.67 60.59 32.11 66.02 31.23 C 67.56 32.66 68.92 34.44 70.90 35.28 C 76.00 33.11 77.18 26.88 78.51 22.07 C 80.19 16.80 78.43 11.36 77.12 6.22 C 80.43 5.68 84.68 5.50 86.41 2.08 Z" />
<path fill="#ffffff" d=" M 87.39 32.63 C 91.65 32.85 95.06 29.86 98.91 28.99 C 102.85 32.06 105.61 36.53 110.12 38.88 C 113.39 41.01 117.90 42.92 118.30 47.36 C 110.96 47.19 104.73 41.94 97.34 42.30 C 95.64 43.61 94.68 45.94 96.07 47.84 C 97.39 52.16 101.47 54.46 103.85 58.07 C 102.49 59.22 101.10 61.13 99.06 60.43 C 95.36 59.62 91.66 58.75 87.88 58.38 C 84.77 60.24 83.60 63.70 81.65 66.52 C 76.10 68.81 69.93 68.77 64.03 69.26 C 59.97 69.21 54.94 69.39 52.08 66.02 C 51.66 62.34 52.03 58.57 50.97 54.96 C 53.81 52.53 57.65 53.92 61.00 53.77 C 66.35 54.04 71.48 52.28 76.78 51.94 C 77.49 53.32 78.18 54.71 78.90 56.08 C 82.78 54.67 84.95 50.93 85.79 47.09 C 86.84 42.35 88.27 37.52 87.39 32.63 Z" />
<path fill="#00b8f1" d=" M 376.44 60.46 C 383.95 51.85 397.63 50.13 407.50 55.52 C 413.28 58.75 416.98 64.93 417.59 71.48 C 414.05 71.44 410.50 71.67 406.96 71.44 C 405.38 69.55 405.00 66.72 402.84 65.22 C 397.42 60.32 387.84 61.94 384.28 68.32 C 380.53 74.92 380.49 83.53 383.66 90.35 C 386.74 97.26 396.91 99.70 402.58 94.60 C 405.22 92.40 406.12 88.96 406.90 85.77 C 410.63 85.73 414.36 85.72 418.09 85.80 C 417.29 91.90 415.01 98.16 410.11 102.15 C 402.72 108.19 391.82 108.58 383.39 104.55 C 375.92 101.02 371.30 93.13 370.19 85.14 C 368.92 76.57 370.73 67.18 376.44 60.46 Z" />
<path fill="#00b8f1" d=" M 866.50 60.51 C 873.82 52.01 887.18 50.21 896.97 55.20 C 903.11 58.24 907.08 64.72 907.65 71.47 C 904.04 71.50 900.44 71.50 896.85 71.55 C 895.65 68.83 894.43 65.81 891.71 64.28 C 886.35 60.67 878.19 62.27 874.73 67.77 C 871.47 72.83 870.88 79.27 871.98 85.09 C 872.80 89.17 874.76 93.41 878.54 95.52 C 883.01 98.17 889.40 98.01 893.18 94.21 C 895.45 91.97 896.22 88.79 896.97 85.79 C 900.69 85.72 904.41 85.73 908.14 85.78 C 907.48 92.19 904.82 98.66 899.57 102.64 C 893.04 107.70 883.90 108.22 876.24 105.71 C 868.45 103.08 862.66 96.01 860.86 88.07 C 858.75 78.71 860.11 67.99 866.50 60.51 Z" />
<path fill="#00b8f1" d=" M 213.72 59.77 C 220.05 52.17 232.65 51.81 240.07 58.00 C 246.62 63.65 246.87 74.74 241.09 81.03 C 235.51 87.29 226.80 89.86 221.86 96.78 C 229.62 96.81 237.40 96.60 245.16 96.85 C 245.97 99.72 245.31 102.85 245.62 105.82 C 233.11 106.18 220.59 105.99 208.08 105.92 C 208.30 101.62 209.16 97.23 211.72 93.67 C 216.42 86.91 224.21 83.49 230.42 78.42 C 233.58 75.96 235.76 71.67 234.22 67.70 C 232.93 63.29 226.84 61.32 223.24 64.18 C 220.14 66.62 219.58 70.80 219.33 74.48 C 215.90 74.53 212.47 74.60 209.06 74.31 C 209.49 69.22 210.29 63.81 213.72 59.77 Z" />
<path fill="#00b8f1" d=" M 667.22 53.84 C 674.83 53.63 682.44 53.82 690.05 53.73 C 694.85 53.71 700.10 53.88 704.11 56.86 C 708.03 59.91 708.86 65.55 707.79 70.14 C 707.14 73.45 704.40 75.66 701.93 77.66 C 712.00 80.69 713.48 95.60 705.74 101.82 C 701.63 105.17 696.12 105.99 690.98 106.01 C 683.05 105.97 675.13 106.07 667.21 105.94 C 667.29 88.57 667.26 71.21 667.22 53.84 Z" />
<path fill="#00b8f1" d=" M 800.77 53.77 C 804.25 53.74 807.74 53.74 811.24 53.77 C 811.26 62.86 811.25 71.95 811.24 81.05 C 815.65 76.89 819.64 72.30 823.88 67.97 C 828.00 68.02 832.13 67.97 836.26 68.05 C 831.64 72.76 827.03 77.49 822.20 81.99 C 827.41 89.98 832.66 97.95 837.91 105.91 C 833.64 106.05 829.37 106.01 825.10 105.98 C 821.77 100.37 818.33 94.83 814.95 89.26 C 813.70 90.52 812.06 91.55 811.35 93.23 C 811.04 97.48 811.35 101.74 811.24 105.99 C 807.74 106.00 804.25 106.00 800.76 106.00 C 800.74 88.59 800.73 71.18 800.77 53.77 Z" />
<path fill="#00b8f1" d=" M 262.44 61.47 C 264.43 59.77 265.16 57.18 265.93 54.78 C 268.70 54.74 271.47 54.74 274.23 54.77 C 274.26 71.85 274.27 88.93 274.23 106.00 C 270.74 106.00 267.25 106.00 263.76 106.00 C 263.75 95.01 263.71 84.03 263.79 73.05 C 259.52 72.97 255.26 73.00 251.00 73.00 C 251.00 70.28 251.00 67.57 251.00 64.86 C 255.00 64.80 259.39 64.35 262.44 61.47 Z" />
<path fill="#00b8f1" d=" M 328.32 56.74 C 331.82 56.72 335.32 56.68 338.81 56.90 C 338.72 60.60 338.74 64.29 338.76 67.99 C 341.25 68.00 343.74 68.00 346.24 68.00 C 346.24 70.41 346.24 72.83 346.24 75.24 C 343.79 75.25 341.35 75.25 338.91 75.20 C 338.69 81.80 338.56 88.43 338.94 95.02 C 338.99 98.88 343.71 97.84 346.24 97.86 C 346.26 100.61 346.26 103.36 346.20 106.11 C 341.57 106.14 336.57 107.01 332.25 104.89 C 329.54 103.65 328.43 100.53 328.34 97.73 C 328.04 90.23 328.47 82.71 328.13 75.20 C 326.18 75.23 324.23 75.25 322.29 75.28 C 322.24 72.86 322.24 70.44 322.30 68.03 C 324.31 68.01 326.34 67.94 328.36 67.84 C 328.21 64.14 328.20 60.44 328.32 56.74 Z" />
<path fill="#00b8f1" d=" M 511.77 56.77 C 515.26 56.74 518.74 56.74 522.23 56.77 C 522.26 60.49 522.26 64.22 522.22 67.94 C 524.74 67.98 527.27 68.01 529.80 68.09 C 529.76 70.43 529.75 72.78 529.78 75.12 C 527.28 75.25 524.77 75.28 522.27 75.25 C 522.35 82.09 522.03 88.94 522.40 95.76 C 523.28 98.91 527.23 97.90 529.65 97.60 C 529.74 100.41 529.77 103.22 529.78 106.03 C 525.00 106.20 519.78 107.07 515.37 104.75 C 512.64 103.24 511.57 99.99 511.74 97.03 C 511.73 89.77 511.77 82.52 511.74 75.26 C 509.80 75.27 507.86 75.33 505.94 75.15 C 504.95 73.06 505.65 70.45 505.40 68.16 C 507.52 68.04 509.65 67.97 511.79 67.92 C 511.73 64.20 511.73 60.48 511.77 56.77 Z" />
<path fill="#ffffff" d=" M 99.03 62.06 C 101.54 63.07 103.36 59.31 105.65 60.22 C 109.14 63.07 112.10 66.55 115.74 69.25 C 119.15 71.51 120.65 75.59 121.53 79.41 C 118.57 79.46 115.80 78.32 113.01 77.51 C 112.36 78.66 111.71 79.80 111.06 80.96 C 109.43 80.99 107.78 80.95 106.16 81.18 C 103.08 82.81 105.12 87.48 101.96 88.94 C 96.54 90.86 91.35 86.68 85.90 87.18 C 81.11 87.92 79.81 94.26 74.93 94.64 C 67.36 95.60 59.51 95.09 52.22 92.76 C 49.62 90.97 51.99 87.64 52.45 85.34 C 53.50 83.11 52.17 80.88 51.39 78.81 C 52.53 78.27 53.59 77.40 54.91 77.34 C 62.24 76.82 69.16 80.12 76.37 80.61 C 85.03 78.12 90.81 69.19 91.67 60.50 C 94.13 60.97 96.58 61.55 99.03 62.06 Z" />
<path fill="#ffffff" d=" M 679.00 62.77 C 683.88 62.88 688.87 62.25 693.65 63.49 C 698.36 65.05 698.01 72.98 693.26 74.27 C 688.62 75.30 683.78 74.49 679.06 74.79 C 678.97 70.79 678.99 66.78 679.00 62.77 Z" />
<path fill="#00b8f1" d=" M 291.22 69.14 C 297.21 66.36 304.37 66.37 310.59 68.41 C 315.22 69.93 318.16 74.47 318.41 79.24 C 315.24 79.24 312.06 79.26 308.89 79.29 C 307.74 74.13 301.34 72.97 297.24 75.21 C 295.31 76.42 295.79 79.33 297.76 80.24 C 303.97 83.42 312.20 82.29 317.32 87.66 C 321.59 92.97 319.15 101.96 313.00 104.75 C 306.92 107.57 299.69 107.62 293.37 105.55 C 288.37 103.94 284.06 98.83 285.04 93.38 C 288.16 93.52 291.27 93.52 294.39 93.46 C 294.89 99.58 302.88 101.47 307.32 98.33 C 309.14 96.95 309.69 93.90 307.45 92.63 C 301.76 89.20 294.40 90.04 288.89 86.16 C 283.13 82.01 285.04 71.96 291.22 69.14 Z" />
<path fill="#00b8f1" d=" M 425.74 75.64 C 430.86 66.87 443.77 64.34 452.05 70.00 C 458.31 74.25 460.41 82.27 460.07 89.46 C 451.09 89.55 442.10 89.49 433.12 89.49 C 433.42 92.38 434.01 95.66 436.65 97.37 C 441.12 100.40 447.81 98.86 450.38 94.05 C 453.42 93.97 456.45 93.98 459.49 94.04 C 457.84 99.19 454.30 104.15 448.96 105.86 C 441.36 108.35 431.77 106.81 426.73 100.17 C 421.59 93.21 421.36 83.03 425.74 75.64 Z" />
<path fill="#00b8f1" d=" M 476.35 72.94 C 480.43 66.51 489.67 65.45 496.02 68.92 C 500.09 71.44 501.29 76.55 501.26 81.03 C 501.25 89.35 501.26 97.67 501.24 106.00 C 497.74 106.00 494.25 106.00 490.76 106.00 C 490.71 98.31 490.79 90.63 490.74 82.95 C 490.75 80.20 489.77 76.83 486.91 75.82 C 483.92 74.96 479.98 75.47 478.24 78.34 C 476.79 80.60 476.76 83.40 476.72 86.00 C 476.78 92.64 476.70 99.29 476.79 105.94 C 473.26 106.03 469.73 106.03 466.20 105.93 C 466.26 93.33 466.32 80.72 466.17 68.11 C 469.51 67.97 472.85 67.97 476.19 68.01 C 476.25 69.65 476.30 71.30 476.35 72.94 Z" />
<path fill="#00b8f1" d=" M 588.05 74.19 C 591.07 69.46 596.43 66.30 602.17 67.03 C 602.27 70.37 602.27 73.71 602.24 77.06 C 597.93 76.66 592.47 76.88 590.29 81.33 C 586.73 89.01 589.63 97.99 588.14 105.92 C 584.82 106.17 581.51 105.97 578.20 105.92 C 578.30 93.30 578.26 80.67 578.22 68.05 C 581.47 67.99 584.73 67.98 587.99 68.00 C 587.99 70.07 588.01 72.13 588.05 74.19 Z" />
<path fill="#00b8f1" d=" M 722.66 69.67 C 728.36 66.59 735.24 66.53 741.48 67.68 C 745.55 68.43 749.93 70.90 750.61 75.36 C 751.38 85.54 749.58 95.97 752.02 106.01 C 748.46 106.02 744.90 106.05 741.35 105.86 C 741.25 105.11 741.04 103.59 740.94 102.84 C 735.44 106.91 727.76 108.36 721.41 105.49 C 713.86 102.20 713.49 89.34 721.12 85.94 C 726.44 83.32 732.64 84.16 738.16 82.22 C 741.69 81.12 740.75 75.56 737.55 74.65 C 734.87 73.99 731.71 73.81 729.37 75.51 C 727.94 76.56 727.63 78.45 726.94 79.97 C 723.49 80.01 720.04 80.01 716.60 79.99 C 716.98 75.86 718.92 71.74 722.66 69.67 Z" />
<path fill="#00b8f1" d=" M 759.92 76.00 C 765.44 65.68 780.97 64.17 789.45 71.57 C 792.34 74.03 793.46 77.80 794.18 81.38 C 790.79 81.56 787.39 81.54 783.99 81.47 C 783.01 79.00 781.80 76.06 778.89 75.43 C 774.99 74.04 770.57 76.30 769.08 80.08 C 767.11 84.87 767.10 90.74 769.70 95.31 C 771.80 99.06 777.17 100.00 780.61 97.55 C 782.85 96.20 783.44 93.50 784.30 91.22 C 787.57 91.26 790.85 91.25 794.13 91.22 C 793.75 97.00 790.41 102.67 785.05 105.12 C 778.13 108.17 769.36 107.57 763.48 102.59 C 756.13 96.06 755.52 84.35 759.92 76.00 Z" />
<path fill="#00b8f1" d=" M 918.43 70.41 C 924.17 66.56 931.60 66.48 938.18 67.66 C 942.37 68.39 946.96 71.01 947.58 75.61 C 948.46 85.71 946.48 96.07 948.95 106.01 C 945.38 106.02 941.82 106.03 938.26 105.90 C 938.16 105.14 937.96 103.60 937.86 102.84 C 932.38 106.93 924.75 108.31 918.39 105.55 C 911.47 102.58 910.41 91.75 916.11 87.11 C 921.66 83.07 928.98 84.42 935.16 82.19 C 938.51 80.94 937.72 75.51 934.48 74.65 C 931.82 73.98 928.77 73.88 926.38 75.37 C 924.77 76.35 924.59 78.40 923.94 79.98 C 920.49 80.01 917.04 80.01 913.60 80.00 C 913.90 76.34 915.24 72.51 918.43 70.41 Z" />
<path fill="#00b8f1" d=" M 966.04 74.09 C 969.02 69.36 974.40 66.27 980.09 67.07 C 980.29 70.41 980.29 73.77 980.23 77.12 C 976.97 77.04 973.26 76.43 970.51 78.62 C 967.60 80.76 966.54 84.53 966.51 87.99 C 966.47 93.96 966.47 99.93 966.57 105.89 C 963.05 106.03 959.53 106.02 956.01 106.00 C 955.98 93.33 956.00 80.67 956.00 68.00 C 959.32 68.00 962.65 68.00 965.98 68.00 C 965.99 70.03 966.02 72.06 966.04 74.09 Z" />
<path fill="#00b8f1" d=" M 989.47 71.38 C 995.01 66.60 1003.48 65.71 1010.05 68.80 C 1017.52 72.53 1021.01 81.64 1019.84 89.62 C 1010.89 89.46 1001.92 89.35 992.98 89.67 C 993.71 92.39 994.10 95.62 996.61 97.36 C 1001.02 100.29 1007.91 99.03 1010.34 94.10 C 1013.40 93.97 1016.47 93.97 1019.55 94.01 C 1018.04 98.85 1014.94 103.50 1010.07 105.43 C 1002.11 108.67 991.48 106.98 986.37 99.60 C 980.68 91.13 981.49 78.18 989.47 71.38 Z" />
<path fill="#00b8f1" d=" M 534.76 68.00 C 538.25 68.00 541.74 68.00 545.24 68.00 C 545.60 76.64 544.52 85.39 545.86 93.95 C 546.77 99.80 555.95 100.02 558.24 95.08 C 559.64 92.27 559.50 89.03 559.52 85.97 C 559.44 80.03 559.59 74.08 559.41 68.14 C 562.93 67.95 566.46 67.97 569.99 68.01 C 570.00 80.67 570.01 93.34 569.99 106.00 C 566.66 106.00 563.33 106.00 560.01 106.00 C 560.00 104.43 560.00 102.87 560.01 101.30 C 555.36 107.24 546.46 108.67 540.02 104.94 C 536.09 102.37 535.01 97.38 534.90 92.98 C 534.57 84.66 534.82 76.33 534.76 68.00 Z" />
<path fill="#00b8f1" d=" M 604.49 68.01 C 608.26 67.98 612.03 67.96 615.81 68.09 C 618.50 76.52 621.22 84.95 624.07 93.33 C 626.99 84.98 629.51 76.50 632.14 68.07 C 635.79 67.97 639.45 67.98 643.12 68.01 C 638.49 80.76 633.76 93.47 629.12 106.20 C 627.62 110.03 626.64 114.55 623.05 117.03 C 618.68 119.89 613.14 119.27 608.22 118.73 C 608.26 115.84 608.26 112.95 608.20 110.06 C 611.25 110.12 615.36 111.48 617.42 108.39 C 618.85 105.93 617.45 103.09 616.60 100.67 C 612.53 89.80 608.45 78.92 604.49 68.01 Z" />
<path fill="#ffffff" d=" M 435.95 76.98 C 438.85 74.60 443.39 74.33 446.45 76.58 C 448.21 78.09 448.78 80.48 449.72 82.52 C 444.17 83.00 438.59 82.67 433.04 82.72 C 433.67 80.67 434.23 78.42 435.95 76.98 Z" />
<path fill="#ffffff" d=" M 992.90 82.53 C 993.92 77.97 998.10 74.12 1002.99 75.15 C 1006.87 75.48 1008.77 79.19 1009.79 82.48 C 1004.18 82.96 998.51 82.86 992.90 82.53 Z" />
<path fill="#ffffff" d=" M 679.01 82.75 C 684.33 82.99 689.78 82.11 695.00 83.42 C 700.73 85.34 700.46 95.61 694.09 96.41 C 689.12 97.18 684.06 96.53 679.06 96.79 C 678.96 92.11 678.99 87.43 679.01 82.75 Z" />
<path fill="#ffffff" d=" M 925.69 90.75 C 929.36 89.22 933.46 89.24 937.26 88.11 C 937.23 91.24 937.64 94.83 935.41 97.37 C 932.84 100.16 928.34 100.38 925.03 98.93 C 921.91 97.19 922.54 92.12 925.69 90.75 Z" />
<path fill="#ffffff" d=" M 88.46 89.19 C 91.59 90.14 94.73 91.28 98.04 91.28 C 100.44 91.27 102.60 89.92 104.99 89.79 C 109.27 91.70 111.60 96.12 114.07 99.87 C 115.69 102.55 118.04 104.79 119.10 107.78 C 116.30 107.73 113.02 106.56 110.75 108.82 C 108.85 110.55 106.49 111.46 104.02 112.04 C 100.88 112.75 99.13 115.71 96.61 117.44 C 90.34 119.45 84.10 113.68 77.86 116.53 C 69.55 120.19 60.13 120.68 51.39 118.42 C 50.33 118.05 48.18 117.75 48.83 116.10 C 49.48 112.75 50.87 109.48 50.31 106.00 C 50.48 104.46 49.55 102.29 51.18 101.29 C 56.24 100.04 60.70 103.64 65.57 104.25 C 69.26 104.64 73.31 105.83 76.77 103.89 C 82.47 101.06 87.93 95.87 88.46 89.19 Z" />
<path fill="#ffffff" d=" M 728.70 90.79 C 732.50 89.21 736.71 89.14 740.68 88.18 C 740.32 91.30 740.66 94.92 738.44 97.44 C 736.01 100.02 731.92 100.28 728.73 99.22 C 725.19 97.87 725.31 92.23 728.70 90.79 Z" />
<path fill="#ffffff" d=" M 94.04 119.41 C 97.31 119.41 99.73 117.07 102.03 115.07 C 105.36 116.35 107.20 119.95 109.23 122.74 C 111.43 126.69 114.44 130.08 116.82 133.91 C 113.03 135.43 109.30 131.05 105.33 132.52 C 103.11 133.15 102.21 135.39 101.28 137.26 C 100.22 139.69 98.01 141.37 95.73 142.60 C 92.48 144.51 88.62 143.28 85.08 143.77 C 80.08 144.47 74.74 144.64 70.31 147.33 C 67.63 148.65 65.28 151.03 62.11 150.95 C 56.31 151.09 50.06 150.16 45.20 146.79 C 42.30 144.95 44.43 141.58 44.96 139.04 C 46.30 135.84 44.91 132.28 45.92 129.07 C 49.65 127.07 54.04 128.94 57.56 130.57 C 63.33 133.66 71.78 133.66 76.18 128.23 C 79.41 125.03 84.16 123.11 85.22 118.20 C 88.18 118.43 91.09 119.09 94.04 119.41 Z" />
</svg>
