<?xml version="1.0" encoding="utf-8"?>
<!-- Generator: Adobe Illustrator 16.0.0, SVG Export Plug-In . SVG Version: 6.00 Build 0)  -->
<!DOCTYPE svg PUBLIC "-//W3C//DTD SVG 1.1//EN" "http://www.w3.org/Graphics/SVG/1.1/DTD/svg11.dtd">
<svg version="1.1" id="Layer_1" xmlns="http://www.w3.org/2000/svg" xmlns:xlink="http://www.w3.org/1999/xlink" x="0px" y="0px"
	 width="30px" height="30px" viewBox="0 0 30 30" enable-background="new 0 0 30 30" xml:space="preserve">
<path fill="#FFFFFF" d="M15.512,15.218c0,0.38-0.309,0.688-0.688,0.688c-0.38,0-0.688-0.309-0.688-0.688
	c0-0.379,0.308-0.688,0.688-0.688C15.203,14.53,15.512,14.838,15.512,15.218z M9.411,4.104C9.265,3.915,9.123,3.747,8.987,3.61
	C8.97,3.588,8.962,3.56,8.939,3.54C8.895,3.495,8.842,3.464,8.795,3.422C8.618,3.263,8.459,3.14,8.331,3.036L8.319,3.04
	c-1.76-1.195-4.302-1.033-5.834,0.5c-0.86,0.861-1.338,2.005-1.338,3.225c0,0.996,0.332,1.935,0.918,2.717
	c0.012,0.022,0.02,0.047,0.031,0.068c0.234,0.396,0.674,0.846,1.17,1.271C4.392,7.877,6.603,5.477,9.411,4.104z M27.518,3.539
	c-1.531-1.533-4.074-1.695-5.832-0.5l-0.014-0.004c-0.127,0.104-0.285,0.227-0.464,0.387c-0.045,0.042-0.101,0.072-0.146,0.117
	c-0.021,0.021-0.029,0.049-0.047,0.07c-0.162,0.165-0.336,0.381-0.514,0.624c2.754,1.431,4.896,3.866,5.959,6.816
	c0.604-0.492,1.165-1.034,1.439-1.502c0.016-0.021,0.021-0.045,0.031-0.068c0.586-0.782,0.918-1.721,0.918-2.717
	C28.855,5.544,28.38,4.399,27.518,3.539z M25.949,15.218c0,3.83-1.945,7.214-4.899,9.216l1.206,2.411
	c0.155,0.311,0.031,0.687-0.279,0.839c-0.088,0.045-0.183,0.065-0.277,0.065c-0.23,0-0.452-0.127-0.561-0.347l-1.166-2.332
	c-1.541,0.809-3.293,1.271-5.151,1.271c-1.857,0-3.607-0.46-5.149-1.271l-1.166,2.332c-0.111,0.22-0.33,0.347-0.56,0.347
	c-0.094,0-0.189-0.021-0.279-0.065c-0.308-0.151-0.433-0.528-0.279-0.839l1.206-2.411c-2.954-2.002-4.899-5.385-4.899-9.216
	c0-6.136,4.992-11.129,11.127-11.129C20.959,4.089,25.952,9.083,25.949,15.218z M19.652,10.433c-0.244-0.244-0.633-0.244-0.875,0
	l-3.045,3.063c-0.016-0.008-0.026-0.012-0.041-0.02c-0.047-0.024-0.094-0.05-0.145-0.07c-0.011-0.004-0.02-0.011-0.029-0.015H15.5
	c-0.057-0.021-0.117-0.039-0.177-0.055V7.124c0-0.346-0.154-0.625-0.5-0.625c-0.345,0-0.5,0.279-0.5,0.625v6.213
	c-0.836,0.222-1.455,0.975-1.455,1.88c0,1.079,0.875,1.955,1.955,1.955c1.079,0,1.954-0.876,1.954-1.955
	c0-0.303-0.074-0.585-0.196-0.841l3.06-3.061C19.885,11.072,19.895,10.676,19.652,10.433z"/>
</svg>
