<?xml version="1.0" encoding="utf-8"?>
<!-- Generator: Adobe Illustrator 16.0.0, SVG Export Plug-In . SVG Version: 6.00 Build 0)  -->
<!DOCTYPE svg PUBLIC "-//W3C//DTD SVG 1.1//EN" "http://www.w3.org/Graphics/SVG/1.1/DTD/svg11.dtd">
<svg version="1.1" id="Layer_1" xmlns="http://www.w3.org/2000/svg" xmlns:xlink="http://www.w3.org/1999/xlink" x="0px" y="0px"
	 width="32.529px" height="30px" viewBox="0 0 32.529 30" enable-background="new 0 0 32.529 30" xml:space="preserve">
<g>
	<path fill="#FFFFFF" d="M19.867,15.882l-2.313-2.112l-0.482,0.528c-0.887,0.963-2.071,1.493-3.339,1.493s-2.452-0.53-3.337-1.492
		l-0.482-0.528l-6.393,5.838c-0.12,0.107-0.271,0.164-0.422,0.164c-0.169,0-0.338-0.068-0.461-0.205
		c-0.233-0.254-0.216-0.648,0.04-0.883l6.393-5.837L2.64,5.815C2.406,5.56,2.425,5.164,2.68,4.932
		c0.254-0.233,0.649-0.217,0.883,0.04l7.757,8.482c1.288,1.401,3.543,1.401,4.833-0.001l7.744-8.471
		c0.233-0.256,0.629-0.273,0.883-0.04c0.256,0.233,0.272,0.628,0.041,0.884l-6.42,7.021l2.623,2.396
		c1.027-0.472,2.166-0.74,3.367-0.74c1.602,0,3.088,0.471,4.346,1.271v-3.771V3.877c0-1.724-1.399-3.381-3.125-3.381H1.861
		c-1.723,0-3.125,1.657-3.125,3.381v16.25c0,1.725,1.402,3.369,3.125,3.369h13.125h1.313c-0.018,0-0.03-0.535-0.03-0.746
		C16.264,19.943,17.695,17.342,19.867,15.882z"/>
	<path fill="#FFFFFF" d="M24.389,15.754c-3.791,0-6.875,3.084-6.875,6.875s3.084,6.875,6.875,6.875c1.793,0,3.49-0.686,4.778-1.934
		c0.249-0.242,0.254-0.637,0.017-0.885c-0.24-0.248-0.637-0.254-0.886-0.017c-1.054,1.021-2.442,1.582-3.909,1.582
		c-3.104,0-5.625-2.521-5.625-5.625s2.521-5.625,5.625-5.625c3.067,0,5.563,2.474,5.613,5.524c-0.005,0.035-0.021,0.063-0.021,0.101
		c0,0.688-0.563,1.25-1.25,1.25c-0.654,0-1.18-0.513-1.229-1.151c0.001-0.033,0.012-0.063,0.012-0.099
		c0-1.726-1.402-3.125-3.125-3.125c-1.726,0-3.125,1.399-3.125,3.125s1.399,3.125,3.125,3.125c1.067,0,2.012-0.541,2.574-1.358
		c0.453,0.451,1.079,0.733,1.771,0.733c1.293,0,2.347-0.985,2.476-2.248c0.034-0.077,0.057-0.162,0.057-0.252
		C31.264,18.838,28.18,15.754,24.389,15.754z M26.248,22.773c-0.076,0.967-0.876,1.729-1.859,1.729
		c-1.033,0-1.875-0.841-1.875-1.875s0.842-1.875,1.875-1.875c1,0,1.813,0.79,1.864,1.775c-0.005,0.035-0.021,0.063-0.021,0.1
		C26.232,22.678,26.245,22.727,26.248,22.773z"/>
</g>
</svg>
