<?xml version="1.0" encoding="utf-8"?>
<!-- Generator: Adobe Illustrator 16.0.0, SVG Export Plug-In . SVG Version: 6.00 Build 0)  -->
<!DOCTYPE svg PUBLIC "-//W3C//DTD SVG 1.1//EN" "http://www.w3.org/Graphics/SVG/1.1/DTD/svg11.dtd">
<svg version="1.1" id="Layer_1" xmlns="http://www.w3.org/2000/svg" xmlns:xlink="http://www.w3.org/1999/xlink" x="0px" y="0px"
	 width="30px" height="30px" viewBox="0 0 30 30" enable-background="new 0 0 30 30" xml:space="preserve">
<g>
	<path fill="#FFFFFF" d="M0.25,9.479C0.093,9.597,0,9.783,0,9.978v15c0,0.277,0.311,0.523,0.579,0.601L9,27.949v-16.3L0.921,9.377
		C0.734,9.325,0.406,9.361,0.25,9.479z"/>
	<circle fill="#FFFFFF" cx="17.521" cy="8.102" r="1.25"/>
	<path fill="#FFFFFF" d="M17.521,1.896c-3.498,0-6.236,2.731-6.236,6.221c0,5.27,5.629,9.414,5.869,9.587
		c0.107,0.08,0.238,0.119,0.367,0.119s0.258-0.039,0.365-0.119c0.24-0.174,5.869-4.317,5.869-9.587
		C23.756,4.627,21.018,1.896,17.521,1.896z M17.521,10.602c-1.379,0-2.5-1.121-2.5-2.5c0-1.38,1.122-2.5,2.5-2.5s2.5,1.12,2.5,2.5
		C20.021,9.48,18.898,10.602,17.521,10.602z"/>
	<path fill="#FFFFFF" d="M17.521,19.074c-0.397,0-0.778-0.123-1.104-0.356c-0.518-0.375-4.218-3.177-5.733-7.211L10,11.679v16.288
		l9-2.188v-7.158c0,0.037-0.225,0.076-0.256,0.098C18.424,18.951,17.918,19.074,17.521,19.074z"/>
	<path fill="#FFFFFF" d="M29.525,11.873l-4.894-1.223c-0.873,3.096-3.125,5.563-4.633,6.929v8.201l9.224,2.306
		c0.051,0.014,0.102,0.02,0.151,0.02c0.138,0,0.271-0.047,0.385-0.133c0.152-0.119,0.24-0.3,0.24-0.492v-15
		C30,12.19,29.805,11.94,29.525,11.873z"/>
</g>
</svg>
