<?xml version="1.0" encoding="utf-8"?>
<!-- Generator: Adobe Illustrator 16.0.0, SVG Export Plug-In . SVG Version: 6.00 Build 0)  -->
<!DOCTYPE svg PUBLIC "-//W3C//DTD SVG 1.1//EN" "http://www.w3.org/Graphics/SVG/1.1/DTD/svg11.dtd">
<svg version="1.1" id="Layer_1" xmlns="http://www.w3.org/2000/svg" xmlns:xlink="http://www.w3.org/1999/xlink" x="0px" y="0px"
	 width="30px" height="30px" viewBox="0 0 30 30" enable-background="new 0 0 30 30" xml:space="preserve">
<g>
	<path fill="#FFFFFF" d="M16.875,19.92c-2-0.384-3.75-2.391-3.75-4.92c0-2.529,1.75-4.533,3.75-4.92V0.055
		c-4,0.555-8.75,7.291-8.75,14.945c0,7.654,4.75,14.391,8.75,14.945V19.92z"/>
	<path fill="#FFFFFF" d="M19.625,0h-1.75v10h1.75c1.378,0,2.25-1.122,2.25-2.5v-5C21.875,1.122,21.003,0,19.625,0z"/>
	<path fill="#FFFFFF" d="M19.625,20h-1.75v10h1.75c1.378,0,2.25-1.122,2.25-2.5v-5C21.875,21.122,21.003,20,19.625,20z"/>
</g>
</svg>
